<?xml version="1.0" standalone="no"?>
<svg viewBox="0 0 200 200" xmlns="http://www.w3.org/2000/svg">
  <path fill="#FF0000" d="M32.8,-50.9C47.6,-41.5,68.2,-41,75.7,-32.3C83.3,-23.6,77.7,-6.6,75.3,10.8C72.8,28.3,73.4,46.2,63.6,52.1C53.8,58.1,33.7,52.1,18.3,51.6C3,51.1,-7.5,56.1,-18.5,56.1C-29.6,56,-41.3,51,-53.9,43C-66.5,35.1,-80.1,24.3,-77,14C-74,3.7,-54.2,-6,-46.2,-20.1C-38.3,-34.3,-42,-52.8,-36.3,-66.3C-30.6,-79.8,-15.3,-88.2,-3.1,-83.3C9,-78.4,18,-60.2,32.8,-50.9Z" transform="translate(100 100)" />
</svg>
