<?xml version="1.0" standalone="no"?>
<svg viewBox="0 0 200 200" xmlns="http://www.w3.org/2000/svg">
  <path fill="#FF9797" d="M29.8,-43C41.3,-39,55.2,-35.3,64.2,-26.2C73.3,-17.1,77.5,-2.7,76.3,11.5C75.2,25.8,68.6,39.7,58.1,48.4C47.6,57,33.1,60.2,18.8,64.8C4.5,69.3,-9.7,75.2,-19.7,70.6C-29.7,66,-35.5,50.9,-48,39.8C-60.5,28.6,-79.7,21.4,-80.5,12C-81.2,2.5,-63.6,-9.2,-55.4,-24.5C-47.2,-39.9,-48.6,-58.8,-40.9,-64.5C-33.3,-70.2,-16.6,-62.7,-3.7,-56.9C9.2,-51.1,18.3,-46.9,29.8,-43Z" transform="translate(100 100)" />
</svg>
